<?xml version="1.0" encoding="utf-8"?>
<!-- Generator: Adobe Illustrator 27.5.0, SVG Export Plug-In . SVG Version: 6.00 Build 0)  -->
<svg version="1.1" id="Layer_1" xmlns="http://www.w3.org/2000/svg" xmlns:xlink="http://www.w3.org/1999/xlink" x="0px" y="0px"
	 viewBox="0 0 512 512" style="enable-background:new 0 0 512 512;" xml:space="preserve">
<g>
	<path d="M222.4,13.92c18.56-18.56,48.64-18.56,67.2,0l208.48,208.51c18.56,18.56,18.56,48.61,0,67.14L289.6,498.08
		c-18.56,18.56-48.61,18.56-67.14,0L13.92,289.6c-18.54-18.5-18.57-48.53-0.07-67.07l0.07-0.07L222.4,13.92z M266.72,223.42
		l25.6,44.35c2.21,3.82,7.11,5.13,10.93,2.91l3.5-4.16l33.92-92.22c1.53-4.14-0.59-8.75-4.73-10.28l-1.41-0.38l-96.83-16.74
		c-4.35-0.77-8.5,2.14-9.27,6.49l0.95,5.38l21.34,36.93l-19.87,11.94c-24.09,14.45-38.84,40.48-38.85,68.58V352h32v-75.78
		c0-16.86,8.84-32.48,23.3-41.15L266.72,223.42z"/>
</g>
</svg>
